<mxfile host="app.diagrams.net" agent="Mozilla/5.0 (X11; Linux x86_64; rv:133.0) Gecko/20100101 Firefox/133.0" version="25.0.3">
  <diagram name="Page-1" id="4U5YkGCh9nd2_-qvNMEP">
    <mxGraphModel dx="1434" dy="790" grid="1" gridSize="10" guides="1" tooltips="1" connect="1" arrows="1" fold="1" page="1" pageScale="1" pageWidth="850" pageHeight="1100" math="0" shadow="0">
      <root>
        <mxCell id="0" />
        <mxCell id="1" parent="0" />
        <mxCell id="Hle4S8Di1_Md17zHJ1X8-1" value="" style="ellipse;whiteSpace=wrap;html=1;aspect=fixed;fontSize=15;fillColor=#f8cecc;strokeColor=#b85450;fontStyle=1" vertex="1" parent="1">
          <mxGeometry x="230" y="220" width="60" height="60" as="geometry" />
        </mxCell>
        <mxCell id="Hle4S8Di1_Md17zHJ1X8-2" value="" style="ellipse;whiteSpace=wrap;html=1;aspect=fixed;fontSize=15;fillColor=#f8cecc;strokeColor=#b85450;fontStyle=1" vertex="1" parent="1">
          <mxGeometry x="230" y="310" width="60" height="60" as="geometry" />
        </mxCell>
        <mxCell id="Hle4S8Di1_Md17zHJ1X8-3" value="" style="ellipse;whiteSpace=wrap;html=1;aspect=fixed;fontSize=15;fillColor=#f8cecc;strokeColor=#b85450;fontStyle=1" vertex="1" parent="1">
          <mxGeometry x="230" y="400" width="60" height="60" as="geometry" />
        </mxCell>
        <mxCell id="Hle4S8Di1_Md17zHJ1X8-15" value="" style="edgeStyle=orthogonalEdgeStyle;rounded=0;orthogonalLoop=1;jettySize=auto;html=1;fontStyle=1" edge="1" parent="1" target="Hle4S8Di1_Md17zHJ1X8-1">
          <mxGeometry relative="1" as="geometry">
            <mxPoint x="160" y="250" as="sourcePoint" />
          </mxGeometry>
        </mxCell>
        <mxCell id="Hle4S8Di1_Md17zHJ1X8-16" value="" style="edgeStyle=orthogonalEdgeStyle;rounded=0;orthogonalLoop=1;jettySize=auto;html=1;fontStyle=1" edge="1" parent="1" target="Hle4S8Di1_Md17zHJ1X8-2">
          <mxGeometry relative="1" as="geometry">
            <mxPoint x="160" y="340" as="sourcePoint" />
          </mxGeometry>
        </mxCell>
        <mxCell id="Hle4S8Di1_Md17zHJ1X8-17" value="" style="edgeStyle=orthogonalEdgeStyle;rounded=0;orthogonalLoop=1;jettySize=auto;html=1;fontStyle=1" edge="1" parent="1" target="Hle4S8Di1_Md17zHJ1X8-3">
          <mxGeometry relative="1" as="geometry">
            <mxPoint x="160" y="430" as="sourcePoint" />
          </mxGeometry>
        </mxCell>
        <mxCell id="Hle4S8Di1_Md17zHJ1X8-32" value="" style="ellipse;whiteSpace=wrap;html=1;aspect=fixed;fontSize=15;fillColor=#f5f5f5;strokeColor=#666666;fontStyle=1;fontColor=#333333;" vertex="1" parent="1">
          <mxGeometry x="420" y="170" width="60" height="60" as="geometry" />
        </mxCell>
        <mxCell id="Hle4S8Di1_Md17zHJ1X8-33" value="" style="ellipse;whiteSpace=wrap;html=1;aspect=fixed;fontSize=15;fillColor=#f5f5f5;strokeColor=#666666;fontStyle=1;fontColor=#333333;" vertex="1" parent="1">
          <mxGeometry x="420" y="260" width="60" height="60" as="geometry" />
        </mxCell>
        <mxCell id="Hle4S8Di1_Md17zHJ1X8-34" value="" style="ellipse;whiteSpace=wrap;html=1;aspect=fixed;fontSize=15;fillColor=#f5f5f5;strokeColor=#666666;fontStyle=1;fontColor=#333333;" vertex="1" parent="1">
          <mxGeometry x="420" y="350" width="60" height="60" as="geometry" />
        </mxCell>
        <mxCell id="Hle4S8Di1_Md17zHJ1X8-35" value="" style="ellipse;whiteSpace=wrap;html=1;aspect=fixed;fontSize=15;fillColor=#f5f5f5;strokeColor=#666666;fontStyle=1;fontColor=#333333;" vertex="1" parent="1">
          <mxGeometry x="420" y="450" width="60" height="60" as="geometry" />
        </mxCell>
        <mxCell id="Hle4S8Di1_Md17zHJ1X8-36" value="" style="ellipse;whiteSpace=wrap;html=1;aspect=fixed;fontSize=15;fillColor=#f8cecc;strokeColor=#b85450;fontStyle=1" vertex="1" parent="1">
          <mxGeometry x="610" y="260" width="60" height="60" as="geometry" />
        </mxCell>
        <mxCell id="Hle4S8Di1_Md17zHJ1X8-37" value="" style="ellipse;whiteSpace=wrap;html=1;aspect=fixed;fontSize=15;fillColor=#f8cecc;strokeColor=#b85450;fontStyle=1" vertex="1" parent="1">
          <mxGeometry x="610" y="360" width="60" height="60" as="geometry" />
        </mxCell>
        <mxCell id="Hle4S8Di1_Md17zHJ1X8-38" value="" style="endArrow=classic;html=1;rounded=0;exitX=1;exitY=0.5;exitDx=0;exitDy=0;" edge="1" parent="1" source="Hle4S8Di1_Md17zHJ1X8-1" target="Hle4S8Di1_Md17zHJ1X8-32">
          <mxGeometry width="50" height="50" relative="1" as="geometry">
            <mxPoint x="310" y="260" as="sourcePoint" />
            <mxPoint x="360" y="210" as="targetPoint" />
          </mxGeometry>
        </mxCell>
        <mxCell id="Hle4S8Di1_Md17zHJ1X8-39" value="" style="endArrow=classic;html=1;rounded=0;exitX=1;exitY=0.5;exitDx=0;exitDy=0;" edge="1" parent="1" source="Hle4S8Di1_Md17zHJ1X8-2" target="Hle4S8Di1_Md17zHJ1X8-32">
          <mxGeometry width="50" height="50" relative="1" as="geometry">
            <mxPoint x="360" y="350" as="sourcePoint" />
            <mxPoint x="410" y="300" as="targetPoint" />
          </mxGeometry>
        </mxCell>
        <mxCell id="Hle4S8Di1_Md17zHJ1X8-40" value="" style="endArrow=classic;html=1;rounded=0;exitX=1;exitY=0.5;exitDx=0;exitDy=0;" edge="1" parent="1" source="Hle4S8Di1_Md17zHJ1X8-3" target="Hle4S8Di1_Md17zHJ1X8-32">
          <mxGeometry width="50" height="50" relative="1" as="geometry">
            <mxPoint x="290" y="410" as="sourcePoint" />
            <mxPoint x="427" y="290" as="targetPoint" />
          </mxGeometry>
        </mxCell>
        <mxCell id="Hle4S8Di1_Md17zHJ1X8-41" value="" style="endArrow=classic;html=1;rounded=0;exitX=1;exitY=0.5;exitDx=0;exitDy=0;" edge="1" parent="1" source="Hle4S8Di1_Md17zHJ1X8-1" target="Hle4S8Di1_Md17zHJ1X8-33">
          <mxGeometry width="50" height="50" relative="1" as="geometry">
            <mxPoint x="300" y="260" as="sourcePoint" />
            <mxPoint x="431" y="219" as="targetPoint" />
          </mxGeometry>
        </mxCell>
        <mxCell id="Hle4S8Di1_Md17zHJ1X8-42" value="" style="endArrow=classic;html=1;rounded=0;exitX=1;exitY=0.5;exitDx=0;exitDy=0;" edge="1" parent="1" source="Hle4S8Di1_Md17zHJ1X8-2" target="Hle4S8Di1_Md17zHJ1X8-33">
          <mxGeometry width="50" height="50" relative="1" as="geometry">
            <mxPoint x="300" y="350" as="sourcePoint" />
            <mxPoint x="437" y="230" as="targetPoint" />
          </mxGeometry>
        </mxCell>
        <mxCell id="Hle4S8Di1_Md17zHJ1X8-43" value="" style="endArrow=classic;html=1;rounded=0;exitX=1;exitY=0.5;exitDx=0;exitDy=0;" edge="1" parent="1" source="Hle4S8Di1_Md17zHJ1X8-2" target="Hle4S8Di1_Md17zHJ1X8-34">
          <mxGeometry width="50" height="50" relative="1" as="geometry">
            <mxPoint x="310" y="360" as="sourcePoint" />
            <mxPoint x="431" y="309" as="targetPoint" />
          </mxGeometry>
        </mxCell>
        <mxCell id="Hle4S8Di1_Md17zHJ1X8-44" value="" style="endArrow=classic;html=1;rounded=0;exitX=1;exitY=0.5;exitDx=0;exitDy=0;" edge="1" parent="1" source="Hle4S8Di1_Md17zHJ1X8-2" target="Hle4S8Di1_Md17zHJ1X8-35">
          <mxGeometry width="50" height="50" relative="1" as="geometry">
            <mxPoint x="300" y="350" as="sourcePoint" />
            <mxPoint x="431" y="383" as="targetPoint" />
          </mxGeometry>
        </mxCell>
        <mxCell id="Hle4S8Di1_Md17zHJ1X8-45" value="" style="endArrow=classic;html=1;rounded=0;exitX=1;exitY=0.5;exitDx=0;exitDy=0;" edge="1" parent="1" source="Hle4S8Di1_Md17zHJ1X8-3" target="Hle4S8Di1_Md17zHJ1X8-32">
          <mxGeometry width="50" height="50" relative="1" as="geometry">
            <mxPoint x="300" y="350" as="sourcePoint" />
            <mxPoint x="437" y="470" as="targetPoint" />
          </mxGeometry>
        </mxCell>
        <mxCell id="Hle4S8Di1_Md17zHJ1X8-46" value="" style="endArrow=classic;html=1;rounded=0;exitX=1;exitY=0.5;exitDx=0;exitDy=0;" edge="1" parent="1" source="Hle4S8Di1_Md17zHJ1X8-1" target="Hle4S8Di1_Md17zHJ1X8-34">
          <mxGeometry width="50" height="50" relative="1" as="geometry">
            <mxPoint x="300" y="260" as="sourcePoint" />
            <mxPoint x="431" y="293" as="targetPoint" />
          </mxGeometry>
        </mxCell>
        <mxCell id="Hle4S8Di1_Md17zHJ1X8-47" value="" style="endArrow=classic;html=1;rounded=0;exitX=1;exitY=0.5;exitDx=0;exitDy=0;" edge="1" parent="1" source="Hle4S8Di1_Md17zHJ1X8-1" target="Hle4S8Di1_Md17zHJ1X8-35">
          <mxGeometry width="50" height="50" relative="1" as="geometry">
            <mxPoint x="300" y="260" as="sourcePoint" />
            <mxPoint x="437" y="371" as="targetPoint" />
          </mxGeometry>
        </mxCell>
        <mxCell id="Hle4S8Di1_Md17zHJ1X8-48" value="" style="endArrow=classic;html=1;rounded=0;exitX=1;exitY=0.5;exitDx=0;exitDy=0;" edge="1" parent="1" source="Hle4S8Di1_Md17zHJ1X8-3" target="Hle4S8Di1_Md17zHJ1X8-33">
          <mxGeometry width="50" height="50" relative="1" as="geometry">
            <mxPoint x="300" y="440" as="sourcePoint" />
            <mxPoint x="443" y="235" as="targetPoint" />
          </mxGeometry>
        </mxCell>
        <mxCell id="Hle4S8Di1_Md17zHJ1X8-49" value="" style="endArrow=classic;html=1;rounded=0;exitX=1;exitY=0.5;exitDx=0;exitDy=0;" edge="1" parent="1" source="Hle4S8Di1_Md17zHJ1X8-3" target="Hle4S8Di1_Md17zHJ1X8-35">
          <mxGeometry width="50" height="50" relative="1" as="geometry">
            <mxPoint x="300" y="440" as="sourcePoint" />
            <mxPoint x="437" y="320" as="targetPoint" />
          </mxGeometry>
        </mxCell>
        <mxCell id="Hle4S8Di1_Md17zHJ1X8-51" value="" style="endArrow=classic;html=1;rounded=0;exitX=1;exitY=0.5;exitDx=0;exitDy=0;" edge="1" parent="1" source="Hle4S8Di1_Md17zHJ1X8-32" target="Hle4S8Di1_Md17zHJ1X8-36">
          <mxGeometry width="50" height="50" relative="1" as="geometry">
            <mxPoint x="530" y="220" as="sourcePoint" />
            <mxPoint x="580" y="170" as="targetPoint" />
          </mxGeometry>
        </mxCell>
        <mxCell id="Hle4S8Di1_Md17zHJ1X8-52" value="" style="endArrow=classic;html=1;rounded=0;exitX=1;exitY=0.5;exitDx=0;exitDy=0;" edge="1" parent="1" source="Hle4S8Di1_Md17zHJ1X8-32" target="Hle4S8Di1_Md17zHJ1X8-37">
          <mxGeometry width="50" height="50" relative="1" as="geometry">
            <mxPoint x="490" y="210" as="sourcePoint" />
            <mxPoint x="624" y="285" as="targetPoint" />
          </mxGeometry>
        </mxCell>
        <mxCell id="Hle4S8Di1_Md17zHJ1X8-53" value="" style="endArrow=classic;html=1;rounded=0;exitX=1;exitY=0.5;exitDx=0;exitDy=0;" edge="1" parent="1" source="Hle4S8Di1_Md17zHJ1X8-33" target="Hle4S8Di1_Md17zHJ1X8-36">
          <mxGeometry width="50" height="50" relative="1" as="geometry">
            <mxPoint x="490" y="210" as="sourcePoint" />
            <mxPoint x="624" y="285" as="targetPoint" />
          </mxGeometry>
        </mxCell>
        <mxCell id="Hle4S8Di1_Md17zHJ1X8-54" value="" style="endArrow=classic;html=1;rounded=0;exitX=1;exitY=0.5;exitDx=0;exitDy=0;" edge="1" parent="1" source="Hle4S8Di1_Md17zHJ1X8-33" target="Hle4S8Di1_Md17zHJ1X8-37">
          <mxGeometry width="50" height="50" relative="1" as="geometry">
            <mxPoint x="490" y="300" as="sourcePoint" />
            <mxPoint x="620" y="300" as="targetPoint" />
          </mxGeometry>
        </mxCell>
        <mxCell id="Hle4S8Di1_Md17zHJ1X8-55" value="" style="endArrow=classic;html=1;rounded=0;exitX=1;exitY=0.5;exitDx=0;exitDy=0;" edge="1" parent="1" source="Hle4S8Di1_Md17zHJ1X8-34" target="Hle4S8Di1_Md17zHJ1X8-36">
          <mxGeometry width="50" height="50" relative="1" as="geometry">
            <mxPoint x="490" y="300" as="sourcePoint" />
            <mxPoint x="625" y="384" as="targetPoint" />
          </mxGeometry>
        </mxCell>
        <mxCell id="Hle4S8Di1_Md17zHJ1X8-56" value="" style="endArrow=classic;html=1;rounded=0;exitX=1;exitY=0.5;exitDx=0;exitDy=0;" edge="1" parent="1" source="Hle4S8Di1_Md17zHJ1X8-34" target="Hle4S8Di1_Md17zHJ1X8-37">
          <mxGeometry width="50" height="50" relative="1" as="geometry">
            <mxPoint x="490" y="390" as="sourcePoint" />
            <mxPoint x="624" y="315" as="targetPoint" />
          </mxGeometry>
        </mxCell>
        <mxCell id="Hle4S8Di1_Md17zHJ1X8-57" value="" style="endArrow=classic;html=1;rounded=0;exitX=1;exitY=0.5;exitDx=0;exitDy=0;" edge="1" parent="1" source="Hle4S8Di1_Md17zHJ1X8-35" target="Hle4S8Di1_Md17zHJ1X8-36">
          <mxGeometry width="50" height="50" relative="1" as="geometry">
            <mxPoint x="490" y="390" as="sourcePoint" />
            <mxPoint x="620" y="398" as="targetPoint" />
          </mxGeometry>
        </mxCell>
        <mxCell id="Hle4S8Di1_Md17zHJ1X8-58" value="" style="endArrow=classic;html=1;rounded=0;exitX=1;exitY=0.5;exitDx=0;exitDy=0;" edge="1" parent="1" source="Hle4S8Di1_Md17zHJ1X8-35" target="Hle4S8Di1_Md17zHJ1X8-37">
          <mxGeometry width="50" height="50" relative="1" as="geometry">
            <mxPoint x="490" y="490" as="sourcePoint" />
            <mxPoint x="631" y="323" as="targetPoint" />
          </mxGeometry>
        </mxCell>
        <mxCell id="Hle4S8Di1_Md17zHJ1X8-59" value="" style="endArrow=classic;html=1;rounded=0;exitX=1;exitY=0.5;exitDx=0;exitDy=0;" edge="1" parent="1" source="Hle4S8Di1_Md17zHJ1X8-36">
          <mxGeometry width="50" height="50" relative="1" as="geometry">
            <mxPoint x="700" y="310" as="sourcePoint" />
            <mxPoint x="740" y="290" as="targetPoint" />
          </mxGeometry>
        </mxCell>
        <mxCell id="Hle4S8Di1_Md17zHJ1X8-61" value="" style="endArrow=classic;html=1;rounded=0;exitX=1;exitY=0.5;exitDx=0;exitDy=0;" edge="1" parent="1">
          <mxGeometry width="50" height="50" relative="1" as="geometry">
            <mxPoint x="670" y="389.5" as="sourcePoint" />
            <mxPoint x="740" y="389.5" as="targetPoint" />
          </mxGeometry>
        </mxCell>
        <mxCell id="Hle4S8Di1_Md17zHJ1X8-67" value="" style="rounded=0;whiteSpace=wrap;html=1;fillColor=none;dashed=1;" vertex="1" parent="1">
          <mxGeometry x="395" y="150" width="110" height="410" as="geometry" />
        </mxCell>
        <mxCell id="Hle4S8Di1_Md17zHJ1X8-66" value="" style="rounded=0;whiteSpace=wrap;html=1;fillColor=none;dashed=1;" vertex="1" parent="1">
          <mxGeometry x="205" y="150" width="110" height="410" as="geometry" />
        </mxCell>
        <mxCell id="Hle4S8Di1_Md17zHJ1X8-68" value="" style="rounded=0;whiteSpace=wrap;html=1;fillColor=none;dashed=1;" vertex="1" parent="1">
          <mxGeometry x="585" y="150" width="110" height="410" as="geometry" />
        </mxCell>
        <mxCell id="Hle4S8Di1_Md17zHJ1X8-69" value="Input Layer" style="text;html=1;align=center;verticalAlign=middle;whiteSpace=wrap;rounded=0;fontSize=15;" vertex="1" parent="1">
          <mxGeometry x="227.5" y="110" width="65" height="30" as="geometry" />
        </mxCell>
        <mxCell id="Hle4S8Di1_Md17zHJ1X8-70" style="edgeStyle=orthogonalEdgeStyle;rounded=0;orthogonalLoop=1;jettySize=auto;html=1;exitX=0.5;exitY=1;exitDx=0;exitDy=0;" edge="1" parent="1" source="Hle4S8Di1_Md17zHJ1X8-69" target="Hle4S8Di1_Md17zHJ1X8-69">
          <mxGeometry relative="1" as="geometry" />
        </mxCell>
        <mxCell id="Hle4S8Di1_Md17zHJ1X8-72" value="Hidden Layer" style="text;html=1;align=center;verticalAlign=middle;whiteSpace=wrap;rounded=0;fontSize=15;" vertex="1" parent="1">
          <mxGeometry x="417.5" y="110" width="65" height="30" as="geometry" />
        </mxCell>
        <mxCell id="Hle4S8Di1_Md17zHJ1X8-73" value="Output Layer" style="text;html=1;align=center;verticalAlign=middle;whiteSpace=wrap;rounded=0;fontSize=15;" vertex="1" parent="1">
          <mxGeometry x="607.5" y="110" width="65" height="30" as="geometry" />
        </mxCell>
      </root>
    </mxGraphModel>
  </diagram>
</mxfile>
